<?xml version="1.0" encoding="UTF-8" standalone="no"?>
<svg
   viewBox="0 0 67.999992 67.999977"
   width="67.999992"
   height="67.999977"
   version="1.1"
   id="svg40"
   sodipodi:docname="BigBlueButton_logo.svg"
   inkscape:version="1.4.2 (1:1.4.2+202505120737+ebf0e940d0)"
   xmlns:inkscape="http://www.inkscape.org/namespaces/inkscape"
   xmlns:sodipodi="http://sodipodi.sourceforge.net/DTD/sodipodi-0.dtd"
   xmlns="http://www.w3.org/2000/svg"
   xmlns:svg="http://www.w3.org/2000/svg">
  <defs
     id="defs40" />
  <sodipodi:namedview
     id="namedview40"
     pagecolor="#ffffff"
     bordercolor="#000000"
     borderopacity="0.25"
     inkscape:showpageshadow="2"
     inkscape:pageopacity="0.0"
     inkscape:pagecheckerboard="0"
     inkscape:deskcolor="#d1d1d1"
     inkscape:zoom="2.4851199"
     inkscape:cx="65.590397"
     inkscape:cy="37.623939"
     inkscape:window-width="1854"
     inkscape:window-height="1011"
     inkscape:window-x="66"
     inkscape:window-y="32"
     inkscape:window-maximized="1"
     inkscape:current-layer="svg40" />
  <linearGradient
     id="a"
     gradientUnits="userSpaceOnUse"
     x1="-113.8594"
     x2="113.8594"
     y1="162.60789"
     y2="-162.60809">
    <stop
       offset="0"
       stop-color="#283274"
       id="stop1" />
    <stop
       offset=".7088"
       stop-color="#283375"
       id="stop2" />
    <stop
       offset=".967"
       stop-color="#273f88"
       id="stop3" />
  </linearGradient>
  <linearGradient
     id="b"
     gradientUnits="userSpaceOnUse"
     x1="-109.1797"
     x2="5.1005998"
     y1="156.1684"
     y2="-7.0408001">
    <stop
       offset="0"
       stop-color="#bfc8e6"
       id="stop4" />
    <stop
       offset=".0772"
       stop-color="#b6bedd"
       id="stop5" />
    <stop
       offset=".2039"
       stop-color="#9fa4c9"
       id="stop6" />
    <stop
       offset=".3642"
       stop-color="#7f82ae"
       id="stop7" />
    <stop
       offset=".5519"
       stop-color="#585c92"
       id="stop8" />
    <stop
       offset=".7582"
       stop-color="#283375"
       id="stop9" />
  </linearGradient>
  <g
     id="icon"
     transform="matrix(0.1638629,0,0,-0.16386287,33.999913,34.000071)">
    <path
       d="m 198.491,0 c 0,-109.624 -88.866,-198.49 -198.491,-198.49 -109.623,0 -198.49,88.866 -198.49,198.49 0,109.623 88.867,198.491 198.49,198.491 109.625,0 198.491,-88.868 198.491,-198.491 z"
       fill="url(#a)"
       stroke="#5d6aa5"
       stroke-width="18"
       id="path9"
       style="fill:url(#a)" />
    <path
       d="m 0.543,190.26 c 50.3,-0.373 104.324,-20.494 143.335,-66.953 -1.66,-39.852 -72.986,-80.704 -132.511,-125.68 -49.945,-37.738 -126.373,-73.128 -178.643,-87.032 -49.698,95.152 -13.55,186.622 48.772,238.038 29.158,25.513 73.097,41.968 119.047,41.627 z"
       fill="url(#b)"
       id="path10"
       style="fill:url(#b)" />
    <path
       d="m 107.395,-49.37 c 0,-16.763 -5.9,-31.045 -17.694,-42.839 C 77.9,-104.01 63.625,-109.903 46.862,-109.903 h -72.175 c -16.764,0 -31.046,5.894 -42.84,17.694 -11.801,11.794 -17.694,26.076 -17.694,42.839 v 181.137 c 12.856,0 23.827,-6.287 32.923,-18.859 9.094,-12.572 13.642,-27.706 13.642,-45.4 V -49.37 c 0,-9.312 4.656,-13.969 13.97,-13.969 h 72.175 c 9.312,0 13.969,4.656 13.969,13.969 V 6.042 c 0,9 -4.656,13.656 -13.969,13.97 h -13.97 c -18.007,0.626 -33.221,5.326 -45.633,14.107 -12.42,8.774 -18.626,19.594 -18.626,32.457 h 78.229 c 16.763,0 31.038,-5.901 42.839,-17.694 11.794,-11.801 17.694,-26.076 17.694,-42.84 V -49.37 Z"
       fill="#757575"
       id="path11" />
    <path
       d="m 103.971,-51.741 c 0,-16.763 -5.9,-31.045 -17.694,-42.839 -11.801,-11.801 -26.076,-17.694 -42.839,-17.694 h -72.175 c -16.763,0 -31.045,5.894 -42.839,17.694 -11.801,11.794 -17.694,26.076 -17.694,42.839 v 181.136 c 12.856,0 23.828,-6.287 32.922,-18.859 9.094,-12.572 13.642,-27.706 13.642,-45.4 V -51.741 c 0,-9.313 4.656,-13.969 13.969,-13.969 h 72.175 c 9.312,0 13.969,4.656 13.969,13.969 V 3.671 c 0,9 -4.656,13.656 -13.969,13.969 H 29.468 C 11.461,18.265 -3.753,22.966 -16.165,31.747 -28.584,40.521 -34.79,51.341 -34.79,64.204 h 78.229 c 16.763,0 31.038,-5.901 42.839,-17.694 11.794,-11.801 17.694,-26.076 17.694,-42.839 v -55.412 z"
       fill="#ffffff"
       id="path12" />
  </g>
</svg>
