<?xml version="1.0" encoding="UTF-8" standalone="no"?>
<svg
   clip-rule="evenodd"
   fill-rule="evenodd"
   height="414.11041"
   stroke-linejoin="round"
   stroke-miterlimit="2"
   viewBox="0 0 414.24832 414.11043"
   width="414.24832"
   version="1.1"
   id="svg19"
   sodipodi:docname="hedgedoc_banner_color_horizontal.svg"
   inkscape:version="1.4.2 (1:1.4.2+202505120737+ebf0e940d0)"
   xmlns:inkscape="http://www.inkscape.org/namespaces/inkscape"
   xmlns:sodipodi="http://sodipodi.sourceforge.net/DTD/sodipodi-0.dtd"
   xmlns="http://www.w3.org/2000/svg"
   xmlns:svg="http://www.w3.org/2000/svg">
  <defs
     id="defs19" />
  <sodipodi:namedview
     id="namedview19"
     pagecolor="#ffffff"
     bordercolor="#000000"
     borderopacity="0.25"
     inkscape:showpageshadow="2"
     inkscape:pageopacity="0.0"
     inkscape:pagecheckerboard="0"
     inkscape:deskcolor="#d1d1d1"
     inkscape:zoom="0.4072621"
     inkscape:cx="716.98299"
     inkscape:cy="138.7313"
     inkscape:window-width="1854"
     inkscape:window-height="1011"
     inkscape:window-x="66"
     inkscape:window-y="32"
     inkscape:window-maximized="1"
     inkscape:current-layer="svg19" />
  <linearGradient
     id="a"
     gradientTransform="matrix(200,-420,420,200,660,1340)"
     gradientUnits="userSpaceOnUse"
     x2="1">
    <stop
       offset="0"
       stop-color="#fdd49a"
       id="stop1" />
    <stop
       offset="1"
       stop-color="#dca055"
       id="stop2" />
  </linearGradient>
  <g
     transform="matrix(0.27874,0,0,0.27874,-39.805187,-39.789578)"
     id="g12"
     style="fill-rule:nonzero">
    <path
       d="m 1553.7,961.08 75.25,-75.258 -75.25,-75.246 56.61,-90.096 -90.1,-56.616 35.15,-100.45 -100.44,-35.142 11.91,-105.75 -105.74,-11.912 -11.92,-105.75 -105.74,11.912 -35.15,-100.44 -100.43,35.145 -56.63,-90.1 -90.107,56.617 -75.242,-75.246 -75.242,75.25 -90.104,-56.612 -56.612,90.096 -100.44,-35.15 -35.142,100.44 -105.75,-11.916 -11.912,105.74 -105.74,11.913 11.917,105.74 -100.45,35.15 35.145,100.44 -90.1,56.612 56.621,90.117 -75.258,75.25 75.25,75.258 -56.613,90.107 90.1,56.61 -35.145,100.44 100.45,35.15 -11.913,105.73 105.74,11.92 11.912,105.74 105.75,-11.91 35.142,100.43 100.44,-35.13 56.617,90.1 90.096,-56.62 75.25,74.55 75.25,-74.53 90.099,56.61 56.61,-90.11 100.45,35.15 35.14,-100.44 105.75,11.91 11.91,-105.75 105.75,-11.91 -11.92,-105.74 100.45,-35.15 -35.15,-100.45 90.1,-56.61 z"
       fill="#b51f08"
       id="path10" />
    <path
       d="m 1401.3,1004.8 c 0,-145.44 -117.9,-263.34 -263.34,-263.34 -72.24,0 -137.68,29.112 -185.25,76.225 l -0.033,-0.034 -67.096,67.1 -54.862,-54.862 c -48.267,-55.067 -119.07,-89.879 -198.04,-89.879 -145.44,0 -263.34,117.9 -263.34,263.34 0,76 32.23,144.43 83.721,192.49 l 432.78,432.55 423.22,-423.49 c 52.88,-49.77 92.25,-120 92.25,-200.1"
       fill="#fdd49a"
       id="path11" />
    <path
       d="m 885.58,884.73 -54.862,-54.862 c -48.267,-55.067 -119.07,-89.879 -198.04,-89.879 -145.44,0 -263.34,117.9 -263.34,263.34 0,76 32.23,144.43 83.721,192.49 l 432.78,432.55"
       fill="url(#a)"
       id="path12"
       style="fill:url(#a)" />
  </g>
  <g
     stroke-width="0.27874"
     id="g19"
     transform="translate(-0.01318696,4.2248e-4)">
    <path
       d="M 207.13,414.11 207.0592,206.82"
       fill="none"
       id="path13" />
    <g
       fill-rule="nonzero"
       id="g18">
      <path
         d="m 228.08,393.26 c -5.3739,-5.3937 -12.799,-8.7275 -20.996,-8.7275 -8.1998,0 -15.622,3.3338 -20.998,8.7275 0.0859,11.523 9.4517,20.839 20.996,20.839 11.544,0 20.911,-9.3184 20.998,-20.839"
         fill="#010007"
         id="path14" />
      <path
         d="m 182.56,266.33 c 0,8.8641 -7.1824,16.047 -16.048,16.047 -8.8604,0 -16.044,-7.1832 -16.044,-16.047 0,-8.8641 7.1835,-16.047 16.044,-16.047 8.8652,0 16.048,7.1832 16.048,16.047"
         fill="#010007"
         id="path15" />
      <path
         d="m 177.06,263.93 c 0,2.4585 -1.9919,4.4432 -4.446,4.4432 -2.4552,0 -4.4482,-1.9847 -4.4482,-4.4432 0,-2.4557 1.993,-4.4488 4.4482,-4.4488 2.4541,0 4.446,1.993 4.446,4.4488"
         fill="#fffffa"
         id="path16" />
      <path
         d="m 263.94,266.33 c 0,8.8641 -7.1832,16.047 -16.047,16.047 -8.8613,0 -16.046,-7.1832 -16.046,-16.047 0,-8.8641 7.1852,-16.047 16.046,-16.047 8.8641,0 16.047,7.1832 16.047,16.047"
         fill="#010007"
         id="path17" />
      <path
         d="m 258.44,263.93 c 0,2.4585 -1.993,4.4432 -4.446,4.4432 -2.4557,0 -4.4488,-1.9847 -4.4488,-4.4432 0,-2.4557 1.993,-4.4488 4.4488,-4.4488 2.453,0 4.446,1.993 4.446,4.4488"
         fill="#fffffa"
         id="path18" />
    </g>
  </g>
</svg>
