<?xml version="1.0" encoding="UTF-8" standalone="no"?>
<svg
   width="155.08092"
   height="143.01831"
   version="1.1"
   id="svg7"
   sodipodi:docname="logo_indico_bw.svg"
   inkscape:version="1.4.2 (1:1.4.2+202505120737+ebf0e940d0)"
   xmlns:inkscape="http://www.inkscape.org/namespaces/inkscape"
   xmlns:sodipodi="http://sodipodi.sourceforge.net/DTD/sodipodi-0.dtd"
   xmlns="http://www.w3.org/2000/svg"
   xmlns:svg="http://www.w3.org/2000/svg">
  <sodipodi:namedview
     id="namedview7"
     pagecolor="#ffffff"
     bordercolor="#000000"
     borderopacity="0.25"
     inkscape:showpageshadow="2"
     inkscape:pageopacity="0.0"
     inkscape:pagecheckerboard="0"
     inkscape:deskcolor="#d1d1d1"
     inkscape:zoom="1.8381289"
     inkscape:cx="3.264189"
     inkscape:cy="181.97854"
     inkscape:window-width="1854"
     inkscape:window-height="1011"
     inkscape:window-x="66"
     inkscape:window-y="32"
     inkscape:window-maximized="1"
     inkscape:current-layer="svg7" />
  <defs
     id="defs1" />
  <path
     d="m 83.57177,143.01831 c -16.21329,0 -31.45725,-5.25599 -44.08256,-15.19996 a 6.6669204,6.6669204 0 0 1 8.25065,-10.47464 c 10.24931,8.07464 22.63994,12.3413 35.83191,12.3413 32.07859,0 58.17585,-26.09727 58.17585,-58.175856 0,-32.077253 -26.09726,-58.175854 -58.17585,-58.175854 -13.06263,0 -25.40127,4.226656 -35.68391,12.223969 a 6.66265,6.66265 0 0 1 -9.35331,-1.16933 6.66265,6.66265 0 0 1 1.16933,-9.35331 C 52.34651,5.1986537 67.51714,0 83.57177,0 c 39.42923,0 71.50915,32.07992 71.50915,71.509154 0,39.429236 -32.07992,71.509156 -71.50915,71.509156"
     style="fill:#5151ff;fill-opacity:1;fill-rule:nonzero;stroke:none;stroke-width:1.33333"
     id="path2" />
  <path
     d="m 83.46643,39.622563 c -8.85331,0 -16.63996,2.759993 -22.34661,7.87998 -6.15999,5.506653 -9.89331,13.746633 -9.91998,24.253273 v 0.0013 c 0,9.897309 -8.49331,19.067953 -18.93328,19.067953 -3.99999,0 -7.70665,-1.239997 -10.77331,-3.373325 -4.93332,-3.413325 -8.15998,-9.119977 -8.15998,-15.559961 0,-10.439974 8.49331,-18.933286 18.93329,-18.933286 3.10666,0 6.05332,0.719998 8.77331,2.146661 a 6.64665,6.64665 0 0 0 8.99998,-2.799993 c 0.98666,-1.866662 0.98666,-3.986657 0.21333,-5.773319 h -0.0133 c -0.57334,-1.33333 -1.61333,-2.493327 -3,-3.226659 A 32.253253,32.253253 0 0 0 32.26659,39.625197 C 14.47997,39.625197 0,54.10516 0,71.891783 0,82.18509 4.85332,91.385067 12.39997,97.291719 a 32.026587,32.026587 0 0 0 19.86662,6.866651 c 10.42664,0 19.69062,-4.985322 25.59993,-12.666636 4.15999,-5.40932 6.63332,-11.686638 6.66132,-19.602618 h 0.005 v -0.133333 c 0.0267,-3.906657 1.37333,-7.87998 3.78666,-11.159972 3.26666,-4.453322 8.53331,-7.639981 15.14663,-7.639981 10.43997,0 18.93329,8.493312 18.93329,18.933286 0,10.439974 -8.49332,18.933286 -18.93329,18.933286 -6.18665,0 -11.70664,-2.986659 -15.15996,-7.599981 a 37.893239,37.893239 0 0 1 -6.65332,12.399969 31.99992,31.99992 0 0 0 21.81328,8.53332 c 17.78662,0 32.26659,-14.479972 32.26659,-32.266594 0,-17.786622 -14.47997,-32.266586 -32.26659,-32.266586"
     style="fill:#5151ff;fill-opacity:1;fill-rule:nonzero;stroke:none;stroke-width:1.33333"
     id="path5" />
</svg>
